<svg width="300" height="433" viewBox="0 0 300 433" fill="none" xmlns="http://www.w3.org/2000/svg">
<mask id="mask0_18_185" style="mask-type:luminance" maskUnits="userSpaceOnUse" x="0" y="0" width="300" height="433">
<path d="M300 432.495H0V0.272858H300V432.495Z" fill="white"/>
</mask>
<g mask="url(#mask0_18_185)">
<path d="M30.7841 322.668C28.6314 317.927 14.1669 291.713 9.27325 283.249C8.21938 281.421 5.64999 275.853 5.24968 274.986C5.26602 274.956 11.8508 263.112 15.0043 256.927C18.5663 249.937 21.442 242.51 25.1388 235.619C28.3005 229.723 37.2627 207.237 40.841 203.72C44.7829 203.699 66.3101 206.086 73.4423 205.466C80.0475 204.893 109.36 203.207 113.788 204.681C118.216 206.155 120.516 211.375 122.616 215.452C125.651 221.331 128.375 227.27 131.762 232.951C136.41 240.752 141.279 248.32 145.258 256.544C147.411 260.983 151.108 265.694 151.851 270.767C151.761 270.793 149 274.904 148.256 277.374C147.162 281.003 126.006 320.849 121.468 326.737C119.283 329.573 115.243 337.322 114.45 339.705C108.327 339.274 101.554 340.537 95.4515 339.736C87.9149 338.753 80.6071 340.524 73.095 340.309C67.2905 340.145 48.0345 342.619 42.5117 341.916C42.0297 340.477 32.1035 325.569 30.7841 322.668Z" fill="#FBC948"/>
<path d="M9.8205 293.437C7.76991 289.933 5.61719 286.49 3.63603 282.938C2.70061 281.257 0.335464 275.943 0.000518799 275.258C-0.0811768 275.262 7.46355 262.117 10.519 256.07C14.0361 249.113 16.8097 241.601 20.6699 234.864C24.1175 228.843 33.3411 203.962 37.2054 200.531C41.0737 197.1 63.4138 199.522 71.8123 200.255C80.2066 200.992 119.932 201.035 119.932 201.035C119.932 201.035 133.747 225.861 137.052 231.404C141.933 239.597 146.916 247.592 151.23 256.139C153.538 260.703 157.435 265.776 157.917 271.06C157.95 271.422 137.766 304.273 135.103 311.415C132.75 317.711 120.843 342.141 117.751 343.464C114.658 344.787 84.4263 342.391 80.4518 342.83C76.5099 343.27 56.923 344.235 50.9264 345.033C47.4788 345.494 42.8466 346.114 39.4561 344.395C38.5003 344.425 25.2286 322.009 22.3324 316.5C18.2762 308.79 14.2158 300.937 9.8205 293.437ZM42.5116 341.921C48.0343 342.623 67.2944 340.149 73.099 340.313C80.6111 340.529 87.9189 338.757 95.4513 339.744C101.558 340.542 108.331 339.279 114.454 339.71C115.242 337.326 119.282 329.577 121.472 326.741C126.01 320.853 147.166 281.007 148.256 277.378C149 274.913 151.765 270.797 151.855 270.771C151.107 265.698 147.411 260.987 145.262 256.548C141.279 248.325 136.414 240.756 131.762 232.955C128.375 227.279 125.651 221.335 122.62 215.456C120.516 211.379 118.216 206.16 113.788 204.686C109.364 203.212 80.0514 204.897 73.4421 205.47C66.3141 206.091 44.7828 203.703 40.8409 203.725C37.2667 207.246 28.3004 229.727 25.1428 235.623C21.446 242.515 18.5662 249.941 15.0083 256.932C11.8548 263.117 5.26997 274.965 5.25363 274.991C5.64987 275.861 8.21924 281.43 9.27313 283.253C14.1709 291.722 28.6313 317.931 30.7881 322.672C32.1034 325.573 42.0337 340.481 42.5116 341.921Z" fill="#F9A511"/>
<path d="M154.041 243.967C151.888 239.226 137.424 213.013 132.53 204.548C131.476 202.725 128.907 197.152 128.506 196.286C128.523 196.26 135.107 184.412 138.261 178.227C141.823 171.236 144.699 163.81 148.395 156.918C151.557 151.022 160.519 128.537 164.098 125.02C168.04 124.998 189.567 127.386 196.699 126.765C203.304 126.192 232.617 124.507 237.045 125.981C241.473 127.455 243.773 132.674 245.872 136.752C248.907 142.63 251.632 148.57 255.018 154.25C259.667 162.051 264.536 169.62 268.519 177.839C270.667 182.283 274.364 186.993 275.108 192.066C275.018 192.092 272.256 196.204 271.513 198.673C270.418 202.303 249.267 242.149 244.725 248.036C242.539 250.872 238.499 258.621 237.707 261.005C231.584 260.574 224.811 261.832 218.708 261.035C211.171 260.052 203.864 261.824 196.352 261.608C190.547 261.444 171.291 263.918 165.768 263.216C165.286 261.776 155.36 246.868 154.041 243.967Z" fill="#FBC948"/>
<path d="M133.073 214.728C131.022 211.224 128.87 207.78 126.893 204.225C125.953 202.548 123.588 197.234 123.253 196.549C123.171 196.553 130.716 183.412 133.771 177.36C137.289 170.404 140.062 162.892 143.922 156.155C147.37 150.134 156.594 125.252 160.458 121.822C164.326 118.391 186.67 120.813 195.065 121.546C203.459 122.283 243.188 122.326 243.188 122.326C243.188 122.326 256.999 147.151 260.304 152.694C265.185 160.887 270.169 168.878 274.482 177.429C276.79 181.994 280.687 187.062 281.169 192.351C281.202 192.708 261.019 225.564 258.355 232.705C256.007 239.002 244.095 263.431 241.003 264.754C237.911 266.078 207.679 263.681 203.704 264.121C199.762 264.56 180.175 265.526 174.179 266.323C170.731 266.784 166.099 267.405 162.709 265.681C161.753 265.716 148.485 243.299 145.585 237.791C141.529 230.08 137.468 222.228 133.073 214.728ZM165.764 263.211C171.287 263.914 190.547 261.44 196.351 261.604C203.863 261.819 211.171 260.048 218.704 261.035C224.811 261.828 231.583 260.569 237.707 261C238.495 258.617 242.535 250.868 244.724 248.032C249.263 242.144 270.418 202.298 271.513 198.669C272.256 196.199 275.018 192.088 275.107 192.062C274.364 186.989 270.667 182.278 268.515 177.839C264.532 169.615 259.667 162.047 255.014 154.246C251.632 148.565 248.903 142.626 245.872 136.747C243.768 132.67 241.473 127.45 237.041 125.976C232.617 124.502 203.304 126.188 196.695 126.761C189.566 127.381 168.039 124.994 164.093 125.015C160.519 128.532 151.553 151.018 148.395 156.914C144.698 163.805 141.819 171.232 138.261 178.222C135.107 184.407 128.522 196.255 128.506 196.281C128.906 197.148 131.472 202.72 132.526 204.544C137.423 213.008 151.884 239.222 154.041 243.963C155.36 246.864 165.286 261.772 165.764 263.211Z" fill="#F9A511"/>
<path d="M127.644 343.942C129.613 338.455 140.622 321.599 143.179 316.095C146.484 308.975 151.361 302.967 154.028 295.467C156.189 289.39 160.389 283.641 162.868 277.719C165.233 278.085 173.615 277.904 177.01 277.176C184.06 275.663 227.331 274.37 230.885 275.029C233.299 275.482 238.034 274.81 238.099 274.736C242.012 277.783 244.255 283.425 246.983 287.498C252.045 295.032 256.138 303.092 260.533 311.057C263.731 316.854 267.453 322.159 270.982 327.719C273.429 331.572 276.75 336.145 275.933 340.968C275.116 345.791 260.104 372.41 256.558 378.319C252.731 384.698 244.749 405.929 242.903 409.601C238.287 411.312 215.252 409.265 208.835 409.484C201.335 409.739 193.766 408.989 186.246 409.075C179.591 409.153 166.589 409.812 166.557 409.812C166.013 409.036 162.529 404.058 161.487 402.222C156.647 393.718 141.345 368.044 138.367 363.833C136.541 361.251 128.629 345.058 127.644 343.942Z" fill="#FBC948"/>
<path d="M128.935 334.637C132.387 329.404 142.284 311.54 144.478 308.057C146.692 304.549 158.701 275.176 161.246 272.896C163.795 270.62 189.828 270.823 196.204 271.547C203.439 272.366 240.382 268.741 240.668 268.935C244.884 271.84 247.335 277.831 250.1 282.106C255.275 290.106 259.675 298.472 264.291 306.833C267.412 312.492 281.852 336.921 281.852 336.921C281.852 336.921 263.462 374.078 260.181 382.262C256.905 390.456 248.572 412.463 243.899 414.484C239.226 416.506 214.059 413.588 207.401 414.019C199.958 414.501 192.361 413.609 184.889 413.67C178.394 413.721 163.86 414.678 163.897 414.605C163.481 413.971 160.115 409.295 159.138 407.64C157.076 404.144 155.18 400.533 153.191 396.99C148.93 389.404 144.221 381.969 139.629 374.599C136.349 369.337 123.682 346.532 124.152 345.653C124.278 341.688 126.95 337.645 128.935 334.637ZM138.367 363.833C141.349 368.044 156.651 393.723 161.487 402.226C162.533 404.058 166.017 409.041 166.556 409.816C166.589 409.812 179.591 409.153 186.25 409.075C193.77 408.989 201.339 409.743 208.839 409.484C215.256 409.269 238.291 411.316 242.907 409.605C244.749 405.929 252.735 384.698 256.562 378.323C260.108 372.41 275.12 345.791 275.933 340.968C276.754 336.15 273.433 331.577 270.986 327.719C267.457 322.159 263.731 316.858 260.537 311.061C256.141 303.096 252.044 295.032 246.987 287.498C244.255 283.425 242.016 277.788 238.103 274.736C238.037 274.81 233.303 275.482 230.885 275.034C227.331 274.374 184.064 275.667 177.014 277.18C173.619 277.908 165.237 278.09 162.868 277.723C160.392 283.645 156.189 289.395 154.032 295.467C151.361 302.967 146.484 308.979 143.179 316.099C140.626 321.603 129.617 338.456 127.648 343.942C128.629 345.058 136.545 361.255 138.367 363.833Z" fill="#F9A511"/>
<path d="M235.501 158.176C234.345 157.788 231.163 156.521 228.446 155.297C224.223 153.353 223.455 153.095 223.226 153.379C222.335 154.435 217.854 160.948 216.261 163.447C213.647 167.645 209.158 177.584 208.369 181.045C206.797 187.907 207.136 196.794 209.145 200.427C210.706 203.255 213.434 204.979 216.216 204.888C220.326 204.78 225.587 201.074 229.427 195.656C233.614 189.721 236.118 181.42 237.731 167.969C238.193 164.262 238.65 160.792 238.777 160.267C239.026 159.219 238.916 159.159 235.501 158.176Z" fill="white"/>
<path d="M252.089 161.758C250.786 161.629 247.911 161.31 245.668 161.034L241.546 160.59L241.673 162.055C242.036 167.046 244.128 177.886 245.611 182.558C249.397 194.333 255.124 200.07 262.902 199.837C272.628 199.548 272.746 189.976 263.302 173.934C261.077 170.337 258.611 166.913 255.921 163.689L254.442 162.034L252.089 161.758Z" fill="white"/>
<path d="M222.164 147.492C221.906 147.746 221.706 148.005 221.478 148.233C221.024 148.63 220.567 149.082 220.138 149.509C219.541 150.108 218.937 150.763 218.365 151.388C217.564 152.242 216.821 153.099 216.049 153.983C214.205 155.982 212.471 158.09 210.853 160.297C209.958 161.53 209.117 162.823 208.275 164.116C207.352 165.491 206.507 166.96 205.69 168.4C204.844 169.926 204.105 171.516 203.398 173.132C202.716 174.723 202.197 176.378 201.764 178.063C201.331 179.688 201.09 181.351 200.906 183.015C200.698 184.532 200.714 186.054 200.669 187.575C200.7 188.932 200.812 190.285 201.004 191.626C201.218 192.987 201.632 194.305 202.23 195.531C202.819 196.673 203.547 197.729 204.395 198.673C205.27 199.597 206.291 200.351 207.413 200.902C208.458 201.445 209.569 201.834 210.714 202.057C211.95 202.242 213.205 202.221 214.435 201.996C215.689 201.828 216.837 201.423 217.985 201.018C219.144 200.533 220.264 199.95 221.335 199.277C222.438 198.578 223.487 197.76 224.455 196.91C225.477 196.005 226.42 195.01 227.311 194.01C228.28 192.897 229.157 191.699 229.933 190.428C230.788 189.091 231.559 187.696 232.241 186.252C232.944 184.808 233.512 183.334 234.108 181.83C234.668 180.403 235.171 178.952 235.615 177.481C236.012 176.115 236.383 174.723 236.726 173.296C237.041 172.02 237.298 170.74 237.584 169.43C237.837 168.206 238.091 167.042 238.348 165.822C238.536 164.825 238.794 163.844 239.12 162.887C239.12 162.943 239.12 163.004 239.091 163.03C238.973 163.146 238.887 163.288 238.773 163.404C237.584 164.305 235.685 163.749 235.309 162.185C235.301 162.534 235.317 162.857 235.309 163.211C235.293 163.913 235.244 164.585 235.252 165.318C235.276 166.486 235.325 167.689 235.407 168.865C235.496 170.412 235.602 171.958 235.726 173.503C235.85 175.162 236.018 176.818 236.228 178.468C236.664 181.883 237.427 185.242 238.507 188.493C239.039 190.009 239.647 191.494 240.329 192.941C241.042 194.355 241.879 195.695 242.829 196.945C243.802 198.168 244.919 199.255 246.154 200.177C247.356 201.111 248.671 201.871 250.063 202.436C251.407 203.031 252.813 203.337 254.222 203.587C255.596 203.769 256.987 203.762 258.36 203.565C259.724 203.401 260.986 202.884 262.2 202.246C263.384 201.522 264.328 200.527 265.137 199.38C265.974 198.143 266.403 196.695 266.693 195.208C266.901 193.635 266.832 192.049 266.738 190.493C266.587 188.821 266.272 187.2 265.843 185.575C265.418 183.894 264.879 182.265 264.287 180.64C263.719 179.097 263.061 177.584 262.441 176.102C261.84 174.649 261.129 173.249 260.39 171.878C259.675 170.482 258.883 169.111 258.086 167.796C257.285 166.542 256.46 165.258 255.607 164.004C254.724 162.775 253.756 161.573 252.792 160.375C251.824 159.172 250.827 158 249.806 156.858C249.671 156.646 249.512 156.465 249.349 156.284C247.22 153.905 244.038 156.681 246.138 159.086L246.595 159.599C247.583 160.703 248.542 161.836 249.471 162.995C250.358 164.107 251.244 165.219 252.045 166.353C252.874 167.521 253.617 168.714 254.365 169.908C255.133 171.132 255.876 172.387 256.538 173.667C257.227 174.941 257.858 176.25 258.429 177.589C259.048 179.005 259.628 180.439 260.169 181.89C260.712 183.344 261.191 184.824 261.603 186.325C261.96 187.705 262.21 189.113 262.351 190.536C262.457 191.743 262.534 192.975 262.363 194.169C262.2 195.074 262.008 195.945 261.517 196.721C261.054 197.381 260.483 197.949 259.83 198.397C259.114 198.833 258.325 199.117 257.506 199.234C256.537 199.352 255.558 199.352 254.589 199.234C253.568 199.113 252.547 198.82 251.558 198.441C250.57 197.997 249.585 197.501 248.719 196.768C247.821 196.07 246.951 195.342 246.256 194.441C245.505 193.424 244.81 192.407 244.259 191.303C243.658 189.967 243.14 188.665 242.645 187.329C242.131 185.851 241.726 184.373 241.383 182.843C241.036 181.308 240.77 179.748 240.566 178.188C240.386 176.602 240.207 175.016 240.084 173.43C239.986 171.934 239.859 170.404 239.761 168.908C239.708 167.822 239.627 166.71 239.631 165.624C239.651 164.922 239.639 164.249 239.684 163.577C239.7 163.051 239.712 162.525 239.672 161.995C239.39 160.228 238.275 159.288 236.461 159.612C236.212 159.694 236.012 159.892 235.787 160.004C235.284 160.529 234.922 161.184 234.737 161.905C234.459 162.801 234.214 163.732 234.047 164.693C233.793 165.857 233.569 167.051 233.287 168.245C233.001 169.495 232.772 170.749 232.49 171.999C232.147 173.305 231.804 174.671 231.408 175.977C230.983 177.309 230.53 178.675 230.023 180.037C229.484 181.425 228.92 182.782 228.299 184.14C227.654 185.411 227.008 186.679 226.253 187.885C225.53 188.95 224.811 190.01 223.978 190.95C223.177 191.863 222.376 192.717 221.465 193.51C220.64 194.217 219.791 194.893 218.859 195.48C218.01 196.04 217.107 196.54 216.184 196.893C215.314 197.247 214.443 197.544 213.524 197.66C212.801 197.755 212.078 197.854 211.302 197.768C210.612 197.6 209.897 197.406 209.268 197.066C208.663 196.751 208.063 196.385 207.581 195.842C207.013 195.268 206.531 194.609 206.188 193.863C205.767 193.031 205.485 192.174 205.318 191.26C205.155 190.114 205.073 188.997 205.077 187.859C205.014 185.015 205.325 182.175 206 179.42C206.4 177.938 206.858 176.459 207.45 175.072C208.069 173.579 208.768 172.124 209.542 170.714C210.313 169.329 211.136 167.976 212.009 166.659C212.793 165.426 213.573 164.245 214.439 163.042C215.215 161.987 216.022 160.956 216.858 159.952C217.691 158.952 218.52 157.952 219.435 156.987C220.154 156.159 220.898 155.302 221.67 154.474C222.213 153.879 222.728 153.306 223.299 152.742C223.722 152.308 224.159 151.891 224.611 151.492C224.815 151.296 225.006 151.086 225.183 150.862C227.429 148.91 224.411 145.539 222.164 147.492Z" fill="#100F0D"/>
<path d="M257.968 115.02C258.862 115.895 261.064 118.602 262.91 121.028C265.806 124.808 266.346 125.407 266.709 125.274C267.947 124.782 274.813 121.244 277.322 119.826C281.496 117.434 289.838 110.835 292.072 108.15C296.52 102.866 300.152 94.8667 299.993 90.6428C299.858 87.3586 298.216 84.4968 295.724 83.221C292.027 81.3203 285.765 81.9797 279.969 84.8502C273.608 88.0525 267.755 94.1124 260.316 105.224C258.262 108.292 256.354 111.107 256.011 111.503C255.349 112.335 255.374 112.421 257.968 115.02Z" fill="white"/>
<path d="M244.9 103.668C245.991 104.405 248.385 106.116 250.292 107.465L253.695 109.883L254.234 108.551C256.134 103.922 259.091 93.2936 259.83 88.4534C261.718 76.2087 259.161 68.2826 252.179 64.6449C243.479 60.1022 239.141 68.5239 240.403 87.363C240.615 90.7377 241.587 96.8881 242.364 100.047L242.94 102.258L244.9 103.668Z" fill="white"/>
<path d="M263.956 126.537C264.266 126.399 264.548 126.235 264.855 126.097C265.365 125.817 265.925 125.541 266.464 125.235C267.22 124.877 267.955 124.433 268.686 124.045C269.675 123.459 270.663 122.873 271.623 122.261C272.751 121.593 273.878 120.925 274.981 120.166C276.112 119.438 277.244 118.654 278.347 117.839C279.568 116.908 280.732 115.977 281.868 115.016C283.147 113.969 284.343 112.835 285.54 111.702C286.794 110.508 287.938 109.197 289.057 107.913C290.119 106.568 291.104 105.133 292.003 103.668C292.848 102.258 293.555 100.758 294.208 99.1939C294.774 97.8041 295.266 96.3825 295.683 94.9356C296.027 93.6321 296.304 92.3098 296.512 90.9747C296.658 89.6083 296.62 88.2271 296.402 86.8716C296.214 85.5786 295.777 84.3632 295.197 83.1736C294.645 82.0185 293.869 81.0272 292.979 80.092C292.113 79.2429 291.132 78.5705 290.124 77.9844C289 77.3939 287.787 77.062 286.541 76.881C285.328 76.6655 284.135 76.6569 282.885 76.7086C281.631 76.8164 280.43 77.0448 279.201 77.3594C277.947 77.6439 276.737 78.105 275.532 78.6222C274.323 79.1438 273.167 79.842 272.011 80.5359C270.769 81.26 269.605 82.1909 268.498 83.1262C267.306 84.1434 266.219 85.2209 265.161 86.3932C264.074 87.531 263.098 88.7896 262.118 90.0481C261.199 91.2506 260.333 92.4531 259.491 93.7461C258.711 94.9227 257.955 96.1295 257.228 97.3665C256.587 98.5173 255.999 99.6723 255.357 100.823C254.745 101.888 254.189 102.957 253.634 104.021C253.254 104.745 252.845 105.435 252.384 106.124C252.284 106.29 252.168 106.443 252.036 106.581C252.065 106.551 252.094 106.465 252.151 106.469C252.265 106.353 252.404 106.271 252.547 106.185C253.919 105.672 255.553 106.836 255.484 108.443C255.593 108.117 255.694 107.788 255.786 107.456C255.999 106.788 256.24 106.15 256.452 105.487C256.734 104.353 256.987 103.189 257.298 102.026L258.253 97.4872C258.601 95.8838 258.866 94.2547 259.164 92.5953C259.43 90.9015 259.614 89.2378 259.744 87.5138C259.847 85.7596 259.838 84.0615 259.777 82.303C259.679 80.6867 259.532 79.0748 259.295 77.4844C259.034 75.9242 258.548 74.4157 258.004 72.9072C257.437 71.4245 256.611 70.0798 255.729 68.7954C254.851 67.5067 253.797 66.3947 252.633 65.3905C251.493 64.4208 250.264 63.6493 248.977 62.9941C247.719 62.3735 246.367 62.0072 245.043 61.7356C243.662 61.4598 242.298 61.5632 240.987 61.7873C239.647 62.1537 238.462 62.8218 237.355 63.6363C236.195 64.5716 235.411 65.8043 234.737 67.1619C234.059 68.5756 233.683 70.0884 233.364 71.6573C233.042 73.2908 232.887 74.9243 232.813 76.5922C232.764 78.3464 232.858 80.079 232.948 81.8073C233.07 83.4538 233.246 85.0959 233.454 86.7164C233.634 88.3025 233.924 89.8326 234.214 91.423C234.525 92.9711 234.89 94.5065 235.309 96.0261C235.699 97.4882 236.132 98.9371 236.608 100.371C237.09 101.879 237.69 103.332 238.262 104.758C238.856 106.198 239.484 107.622 240.145 109.029C240.247 109.255 240.343 109.483 240.431 109.715C241.824 112.654 245.644 111.012 244.279 108.042C244.202 107.835 244.071 107.629 243.993 107.417C243.364 106.051 242.764 104.659 242.188 103.293C241.64 101.961 241.097 100.625 240.66 99.237C240.227 97.9052 239.819 96.5433 239.439 95.1554C239.063 93.7116 238.716 92.2936 238.417 90.8799C238.127 89.4059 237.862 87.962 237.703 86.5225C237.527 84.9924 237.319 83.4365 237.221 81.8806C237.123 80.3247 237.057 78.7429 237.127 77.1913C237.192 75.7561 237.261 74.3252 237.547 72.9589C237.805 71.7349 238.087 70.5453 238.585 69.4764C238.928 68.6571 239.43 67.9229 240.06 67.3214C240.713 66.8473 241.363 66.4249 242.143 66.2137C242.957 66.0292 243.796 66.0059 244.618 66.1448C245.574 66.3177 246.507 66.6114 247.396 67.0197C248.338 67.5019 249.233 68.0778 250.072 68.7394C250.921 69.4598 251.681 70.2894 252.335 71.209C253.03 72.1346 253.6 73.1572 254.03 74.2476C254.49 75.4077 254.828 76.6174 255.039 77.8551C255.284 79.2712 255.431 80.7046 255.476 82.1435C255.57 83.7038 255.566 85.2688 255.464 86.8285C255.337 88.3758 255.182 89.9533 254.945 91.5006C254.679 93.0694 254.414 94.6469 254.067 96.1855C253.748 97.6984 253.433 99.1551 253.086 100.638C252.866 101.715 252.612 102.763 252.335 103.836C252.151 104.474 251.91 105.112 251.726 105.749C251.546 106.275 251.391 106.767 251.268 107.288C251.052 109.042 251.853 110.297 253.678 110.525C253.928 110.564 254.181 110.426 254.459 110.374C255.067 110.026 255.578 109.516 255.941 108.896C256.489 108.118 256.984 107.302 257.424 106.452C257.98 105.387 258.539 104.319 259.119 103.28C259.736 102.159 260.32 101.064 260.933 99.9396C262.332 97.5366 263.87 95.2264 265.537 93.022C266.456 91.8755 267.346 90.7032 268.347 89.6516C269.281 88.607 270.271 87.6198 271.313 86.6949C272.281 85.9062 273.273 85.0873 274.372 84.4451C275.379 83.8375 276.414 83.2823 277.473 82.7814C278.453 82.372 279.466 81.9927 280.5 81.7039C281.471 81.4528 282.46 81.287 283.457 81.2083C284.382 81.1347 285.311 81.1621 286.231 81.2901C286.946 81.4324 287.664 81.5703 288.351 81.9108C289.005 82.2478 289.61 82.6817 290.148 83.1995C290.641 83.6804 291.065 84.2351 291.406 84.8459C291.769 85.5915 292.028 86.3885 292.174 87.2121C292.342 88.1207 292.373 89.0518 292.264 89.9705C292.097 91.104 291.9 92.2117 291.537 93.3151C291.194 94.621 290.773 95.8968 290.266 97.1424C289.674 98.4698 289.082 99.8016 288.326 101.064C287.542 102.362 286.676 103.62 285.728 104.793C284.732 106.023 283.663 107.185 282.526 108.271C281.382 109.348 280.242 110.426 279.025 111.413C277.942 112.318 276.835 113.253 275.704 114.094C274.654 114.852 273.608 115.615 272.506 116.313C271.46 117.012 270.357 117.71 269.258 118.352C268.298 118.908 267.367 119.494 266.407 120.05C265.733 120.442 265.026 120.8 264.352 121.188C263.788 121.464 263.282 121.744 262.747 121.99L262.016 122.377C259.316 123.584 261.256 127.743 263.956 126.537Z" fill="#100F0D"/>
<path d="M244.353 108.426C230.023 103.569 216.625 104.271 208.496 110.322C205.89 112.236 205.628 112.607 203.737 116.826C201.936 120.843 201.776 121.628 201.858 124.619C201.911 126.726 202.585 129.648 203.749 132.76C205.22 136.756 206.204 138.398 209.448 142.51C215.914 150.699 222.499 155.702 233.083 160.418C240.844 163.904 247.514 165.516 254.675 165.615C262.943 165.749 268.845 164.085 273.919 160.168C276.018 158.534 276.456 157.875 278.138 154.086C279.883 150.246 280.038 149.518 279.936 146.264C279.785 142.54 277.975 136.657 275.745 132.959C272.8 127.976 267.518 122.192 262.024 117.986C258.164 115.055 248.617 109.874 244.353 108.426Z" fill="#F2EF1D"/>
<path d="M277.869 154.81C276.929 151.647 275.356 148.143 273.678 145.604C270.238 140.372 264.246 134.273 258.041 129.692C253.739 126.515 243.098 120.774 238.372 119.106C224.953 114.365 212.425 113.693 203.643 117.145C203.675 117.055 203.704 116.968 203.761 116.852C205.657 112.637 205.914 112.322 208.491 110.378C216.653 104.301 230.051 103.594 244.377 108.456C248.642 109.9 258.188 115.085 262.024 118.042C267.514 122.248 272.824 128.006 275.769 132.984C277.975 136.713 279.813 142.57 279.96 146.294C280.038 149.574 279.907 150.276 278.191 154.147C278.044 154.405 277.959 154.608 277.869 154.81Z" fill="#E2D50C"/>
<path d="M222.686 157.965C200.146 146.763 187.32 125.494 194.031 110.439C200.743 95.3839 224.476 92.2979 247.016 103.5C269.552 114.757 282.378 136.032 275.671 151.026C268.96 166.081 245.227 169.167 222.686 157.965ZM225.991 156.892C245.929 166.814 266.934 164.055 272.873 150.737C278.845 137.445 267.477 118.589 247.51 108.697C227.547 98.7457 206.543 101.504 200.6 114.826C194.689 128.118 206.028 146.945 225.991 156.892Z" fill="#100F0D"/>
<path d="M211.118 117.955C210.838 118.152 210.524 118.288 210.193 118.353C209.862 118.418 209.523 118.412 209.194 118.335C208.365 118.137 207.879 117.593 207.511 116.878C207.458 116.701 207.381 116.555 207.667 117.236C209.627 120.692 214.231 117.818 212.327 114.361C212.666 115.102 212.507 114.805 212.458 114.628C212.009 113.766 211.416 113.102 210.481 112.84C209.595 112.697 208.733 112.758 207.997 113.322C204.909 115.658 208.002 120.261 211.118 117.955Z" fill="#100F0D"/>
<path d="M208.333 128.588C207.765 129.041 207.07 129.105 206.38 128.998C205.608 128.799 205.097 128.226 204.726 127.511C204.781 127.643 204.842 127.773 204.91 127.899C206.813 131.355 211.445 128.506 209.538 125.054C209.852 125.765 209.693 125.468 209.673 125.321C209.486 124.881 209.209 124.49 208.862 124.175C208.516 123.861 208.107 123.631 207.667 123.502C206.809 123.33 205.947 123.451 205.212 124.011C202.124 126.291 205.245 130.924 208.333 128.588Z" fill="#100F0D"/>
<path d="M276.202 150.776C276.844 150.651 277.456 150.668 278.094 150.66C280.136 150.7 282.172 150.917 284.18 151.31C287.144 151.95 290.079 152.733 292.975 153.659C293.44 153.819 293.935 154.009 294.433 154.142C295.614 154.5 296.079 152.728 294.895 152.371L293.408 151.974C290.516 151.095 287.656 150.19 284.83 149.018C282.934 148.168 281.071 147.294 279.327 146.126C278.837 145.759 278.294 145.393 277.832 144.94C273.923 143.764 272.322 149.574 276.202 150.776Z" fill="#100F0D"/>
<path d="M217.474 152.293C228.756 137.725 231.158 119.895 233.037 101.879L242.13 105.206C243.409 126.028 236.848 142.85 226.404 157.672L217.474 152.293Z" fill="#100F0D"/>
<path d="M217.474 152.293C228.756 137.725 231.158 119.895 233.037 101.879L242.13 105.206C243.409 126.028 236.848 142.85 226.404 157.672L217.474 152.293Z" stroke="#100F0D" stroke-width="0.846665" stroke-miterlimit="282"/>
<path d="M236.24 160.922C248.053 147.285 252.612 128.726 252.371 111.572L260.52 114.52C261.378 133.924 255.173 149.75 245.541 163.792L236.24 160.922Z" fill="#100F0D"/>
<path d="M236.24 160.922C248.053 147.285 252.612 128.726 252.371 111.572L260.52 114.52C261.378 133.924 255.173 149.75 245.541 163.792L236.24 160.922Z" stroke="#100F0D" stroke-width="0.846665" stroke-miterlimit="282"/>
<path d="M254.761 162.805C262.575 153.173 266.909 134.152 267.146 122.438L272.224 128.106C272.293 141.337 268.041 152.323 261.583 162.163L254.761 162.805Z" fill="#100F0D"/>
<path d="M254.761 162.805C262.575 153.173 266.909 134.152 267.146 122.438L272.224 128.106C272.293 141.337 268.041 152.323 261.583 162.163L254.761 162.805Z" stroke="#100F0D" stroke-width="0.846665" stroke-miterlimit="282"/>
<path d="M193.145 121.511C192.765 121.517 192.392 121.616 192.054 121.8C191.776 121.908 191.495 122.015 191.241 122.158C190.96 122.321 190.649 122.52 190.392 122.718C190.057 122.882 189.742 123.136 189.432 123.33L188.525 124.067C187.857 124.601 187.236 125.198 186.67 125.851C186.327 126.196 186.037 126.597 185.751 126.998C185.461 127.399 185.2 127.83 184.938 128.261C184.677 128.752 184.44 129.269 184.232 129.761C183.995 130.282 183.815 130.864 183.66 131.416C183.57 131.674 183.533 131.937 183.443 132.2C182.724 135.251 186.801 136.312 187.549 133.29C187.588 133.083 187.64 132.879 187.704 132.678C187.894 131.948 188.176 131.248 188.541 130.597C188.717 130.252 188.888 129.963 189.093 129.704C189.274 129.414 189.485 129.145 189.722 128.903C189.926 128.649 190.155 128.42 190.408 128.162C190.608 127.963 190.866 127.769 191.094 127.541L191.83 126.976C192.058 126.808 192.312 126.67 192.536 126.502C192.761 126.39 192.961 126.248 193.214 126.11L193.611 125.89C193.496 125.886 193.386 125.942 193.247 125.963C196.221 125.851 196.147 121.425 193.145 121.511Z" fill="#100F0D"/>
<path d="M194.987 114.038C194.608 114.009 194.24 113.888 193.913 113.684C193.639 113.559 193.394 113.404 193.12 113.219C192.851 113.038 192.606 112.822 192.332 112.641C192.005 112.396 191.707 112.18 191.409 111.909L190.543 111.12C190.245 110.848 189.975 110.547 189.681 110.215C189.383 109.883 189.113 109.525 188.819 109.193C188.525 108.805 188.259 108.387 187.99 107.969C187.753 107.521 187.516 107.073 187.308 106.599C187.042 106.125 186.862 105.62 186.711 105.09C186.503 104.556 186.38 103.995 186.229 103.405C186.209 103.138 186.16 102.845 186.111 102.612C185.612 99.5173 189.742 98.7673 190.24 101.858C190.318 102.064 190.338 102.271 190.363 102.474C190.436 102.857 190.537 103.233 190.665 103.599C190.77 103.953 190.899 104.299 191.053 104.633C191.215 104.944 191.382 105.252 191.556 105.556C191.711 105.857 191.899 106.125 192.087 106.392C192.328 106.663 192.516 106.935 192.732 107.176C192.949 107.418 193.165 107.599 193.378 107.84L194.113 108.478L194.738 108.995C194.954 109.176 195.171 109.301 195.363 109.452C195.498 109.542 195.632 109.637 195.8 109.698C195.661 109.667 195.522 109.633 195.412 109.629C198.373 109.922 197.977 114.365 194.987 114.038Z" fill="#100F0D"/>
</g>
</svg>
