<svg width="300" height="354" viewBox="0 0 300 354" fill="none" xmlns="http://www.w3.org/2000/svg">
<path d="M269.214 261.165C271.366 256.424 285.831 230.211 290.725 221.746C291.778 219.918 294.348 214.35 294.748 213.483C294.732 213.453 288.147 201.609 284.993 195.424C281.431 188.434 278.556 181.007 274.859 174.116C271.697 168.22 262.735 145.734 259.157 142.217C255.215 142.196 233.688 144.584 226.556 143.963C219.95 143.39 190.637 141.704 186.209 143.178C181.781 144.652 179.482 149.872 177.382 153.949C174.347 159.828 171.622 165.767 168.236 171.448C163.587 179.249 158.718 186.817 154.74 195.041C152.587 199.48 148.89 204.191 148.147 209.264C148.237 209.29 150.998 213.401 151.741 215.871C152.836 219.5 173.992 259.346 178.53 265.234C180.715 268.07 184.755 275.819 185.548 278.202C191.671 277.771 198.444 279.034 204.546 278.233C212.083 277.25 219.391 279.021 226.903 278.806C232.707 278.642 251.963 281.116 257.486 280.414C257.968 278.974 267.894 264.066 269.214 261.165Z" fill="#FBC948"/>
<path d="M290.177 231.935C292.228 228.431 294.381 224.987 296.362 221.435C297.297 219.754 299.662 214.44 299.997 213.755C300.079 213.759 292.534 200.614 289.479 194.567C285.962 187.61 283.188 180.098 279.328 173.362C275.88 167.34 266.657 142.459 262.792 139.028C258.924 135.597 236.584 138.019 228.186 138.752C219.791 139.489 180.066 139.532 180.066 139.532C180.066 139.532 166.251 164.358 162.946 169.901C158.065 178.094 153.081 186.089 148.768 194.636C146.46 199.2 142.563 204.273 142.081 209.557C142.048 209.919 162.231 242.77 164.895 249.912C167.248 256.209 179.155 280.638 182.247 281.961C185.339 283.284 215.571 280.888 219.546 281.327C223.488 281.767 243.075 282.732 249.071 283.53C252.519 283.991 257.151 284.611 260.542 282.892C261.498 282.922 274.769 260.506 277.665 254.997C281.722 247.287 285.782 239.434 290.177 231.935ZM257.486 280.418C251.963 281.12 232.703 278.646 226.899 278.81C219.387 279.026 212.079 277.254 204.546 278.241C198.44 279.039 191.667 277.776 185.544 278.207C184.755 275.823 180.715 268.074 178.526 265.238C173.988 259.351 152.832 219.504 151.742 215.875C150.998 213.41 148.233 209.294 148.143 209.268C148.89 204.195 152.587 199.484 154.736 195.045C158.718 186.822 163.584 179.253 168.236 171.452C171.623 165.776 174.347 159.832 177.378 153.954C179.482 149.876 181.782 144.657 186.21 143.183C190.633 141.709 219.946 143.394 226.556 143.967C233.684 144.588 255.215 142.2 259.157 142.222C262.731 145.743 271.697 168.224 274.855 174.12C278.552 181.012 281.432 188.438 284.99 195.429C288.143 201.614 294.728 213.462 294.744 213.488C294.348 214.358 291.779 219.927 290.725 221.75C285.827 230.219 271.367 256.428 269.21 261.169C267.894 264.07 257.964 278.978 257.486 280.418Z" fill="#F9A511"/>
<path d="M145.957 182.464C148.11 177.723 162.574 151.51 167.468 143.045C168.522 141.222 171.091 135.649 171.492 134.783C171.475 134.757 164.89 122.909 161.737 116.724C158.175 109.733 155.299 102.307 151.602 95.4152C148.441 89.5191 139.479 67.0337 135.9 63.5168C131.958 63.4952 110.431 65.883 103.299 65.2623C96.6937 64.6891 67.3808 63.0039 62.9528 64.4779C58.5248 65.9519 56.2251 71.1714 54.1255 75.2486C51.0904 81.1275 48.3658 87.0667 44.9795 92.7473C40.3309 100.548 35.4617 108.117 31.479 116.336C29.3304 120.78 25.6336 125.49 24.8901 130.563C24.98 130.589 27.7414 134.701 28.4848 137.171C29.5796 140.8 50.7309 180.646 55.2733 186.533C57.4587 189.369 61.4986 197.118 62.2911 199.502C68.4143 199.071 75.187 200.329 81.2897 199.532C88.8263 198.549 96.1341 200.321 103.646 200.105C109.451 199.942 128.707 202.415 134.229 201.713C134.711 200.273 144.638 185.365 145.957 182.464Z" fill="#FBC948"/>
<path d="M166.925 153.225C168.975 149.721 171.128 146.277 173.105 142.722C174.045 141.045 176.41 135.731 176.745 135.046C176.827 135.05 169.282 121.909 166.226 115.857C162.709 108.901 159.936 101.389 156.075 94.6522C152.628 88.6311 143.404 63.7494 139.54 60.3186C135.672 56.8879 113.327 59.3101 104.933 60.0428C96.5387 60.7798 56.8094 60.8229 56.8094 60.8229C56.8094 60.8229 42.9985 85.6486 39.6939 91.1912C34.8125 99.3846 29.8289 107.375 25.5153 115.926C23.2074 120.491 19.3104 125.559 18.8284 130.848C18.7957 131.205 38.979 164.061 41.6423 171.202C43.9911 177.499 55.9026 201.928 58.9948 203.252C62.087 204.575 92.319 202.178 96.2936 202.618C100.235 203.058 119.822 204.023 125.819 204.82C129.267 205.282 133.899 205.902 137.289 204.178C138.245 204.213 151.513 181.796 154.413 176.288C158.469 168.577 162.53 160.725 166.925 153.225ZM134.234 201.709C128.711 202.411 109.451 199.937 103.646 200.101C96.1343 200.316 88.8265 198.545 81.294 199.532C75.1872 200.325 68.4145 199.066 62.2913 199.497C61.5029 197.114 57.463 189.365 55.2735 186.529C50.7352 180.641 29.5798 140.795 28.485 137.166C27.7416 134.696 24.9802 130.585 24.8903 130.559C25.6338 125.486 29.3306 120.775 31.4833 116.336C35.466 108.112 40.3311 100.544 44.9837 92.7428C48.366 87.0622 51.0947 81.123 54.1256 75.2442C56.2293 71.1669 58.525 65.9475 62.9571 64.4735C67.381 62.9995 96.6939 64.6847 103.303 65.2579C110.431 65.8785 131.958 63.4908 135.904 63.5123C139.479 67.0293 148.445 89.5146 151.603 95.4107C155.299 102.302 158.179 109.729 161.737 116.719C164.891 122.904 171.475 134.753 171.492 134.778C171.091 135.645 168.526 141.218 167.472 143.041C162.574 151.506 148.114 177.719 145.957 182.46C144.638 185.361 134.712 200.269 134.234 201.709Z" fill="#F9A511"/>
<path d="M172.353 282.439C170.385 276.953 159.376 260.096 156.819 254.592C153.514 247.472 148.637 241.464 145.969 233.964C143.808 227.887 139.609 222.138 137.13 216.216C134.765 216.582 126.382 216.401 122.988 215.673C115.937 214.16 72.6666 212.867 69.1128 213.526C66.6986 213.979 61.9643 213.307 61.8989 213.233C57.9856 216.281 55.7431 221.922 53.0144 225.995C47.9532 233.529 43.8602 241.589 39.4649 249.554C36.2665 255.351 32.5452 260.656 29.0158 266.216C26.569 270.069 23.248 274.642 24.065 279.465C24.882 284.288 39.8938 310.907 43.4395 316.816C47.267 323.195 55.2488 344.426 57.0951 348.098C61.711 349.809 84.7455 347.762 91.1628 347.981C98.6626 348.236 106.232 347.486 113.752 347.572C120.406 347.65 133.408 348.309 133.441 348.309C133.984 347.533 137.469 342.555 138.51 340.719C143.351 332.215 158.653 306.541 161.631 302.33C163.457 299.748 171.369 283.555 172.353 282.439Z" fill="#FBC948"/>
<path d="M171.063 273.134C167.611 267.902 157.714 250.037 155.52 246.554C153.306 243.046 141.296 213.673 138.752 211.393C136.203 209.117 110.17 209.32 103.793 210.044C96.5591 210.863 59.6157 207.238 59.3298 207.432C55.1142 210.337 52.6633 216.328 49.8978 220.604C44.7223 228.603 40.3229 236.969 35.707 245.33C32.5862 250.989 18.1462 275.418 18.1462 275.418C18.1462 275.418 36.5363 312.575 39.8164 320.76C43.0925 328.953 51.4256 350.96 56.0986 352.981C60.7717 355.003 85.9385 352.085 92.5968 352.516C100.039 352.998 107.637 352.106 115.108 352.167C121.603 352.218 136.137 353.175 136.101 353.102C136.517 352.468 139.883 347.792 140.859 346.137C142.922 342.641 144.818 339.03 146.807 335.487C151.067 327.901 155.777 320.466 160.369 313.096C163.649 307.834 176.316 285.03 175.846 284.15C175.72 280.185 173.048 276.142 171.063 273.134ZM161.631 302.33C158.649 306.541 143.347 332.22 138.511 340.724C137.465 342.555 133.981 347.538 133.441 348.313C133.409 348.309 120.407 347.65 113.748 347.572C106.228 347.486 98.6588 348.24 91.159 347.982C84.7417 347.766 61.7072 349.813 57.0913 348.102C55.249 344.426 47.2631 323.195 43.4356 316.82C39.8899 310.907 24.8781 284.288 24.0652 279.465C23.2441 274.647 26.5651 270.074 29.012 266.216C32.5413 260.656 36.2667 255.355 39.461 249.558C43.8563 241.593 47.9534 233.529 53.0105 225.995C55.7433 221.922 57.9818 216.285 61.8951 213.233C61.9604 213.307 66.6948 213.979 69.113 213.531C72.6668 212.871 115.934 214.164 122.984 215.677C126.379 216.406 134.761 216.587 137.13 216.22C139.605 222.142 143.809 227.892 145.965 233.965C148.637 241.464 153.514 247.476 156.819 254.597C159.372 260.1 170.381 276.953 172.35 282.439C171.369 283.556 163.453 299.753 161.631 302.33Z" fill="#F9A511"/>
<path d="M64.4969 96.6734C65.6529 96.2855 68.835 95.0183 71.5515 93.7943C75.7752 91.8505 76.5432 91.5919 76.7719 91.8763C77.6624 92.9323 82.1435 99.4447 83.7366 101.945C86.3509 106.142 90.8402 116.081 91.6285 119.542C93.2012 126.404 92.8622 135.291 90.8524 138.924C89.292 141.752 86.5633 143.476 83.7815 143.385C79.6722 143.278 74.4109 139.571 70.5711 134.153C66.3841 128.218 63.8801 119.917 62.2666 106.466C61.805 102.759 61.3475 99.2896 61.2209 98.7637C60.9717 97.7164 61.082 97.6561 64.4969 96.6734Z" fill="white"/>
<path d="M47.9085 100.255C49.2116 100.126 52.0873 99.8069 54.3299 99.5311L58.4515 99.0872L58.3249 100.553C57.9613 105.544 55.8699 116.383 54.3871 121.055C50.6004 132.83 44.8734 138.567 37.0959 138.334C27.3698 138.045 27.2514 128.473 36.6956 112.431C38.9204 108.834 41.3872 105.41 44.0769 102.186L45.5556 100.531L47.9085 100.255Z" fill="white"/>
<path d="M77.834 85.9891C78.0913 86.2434 78.2915 86.502 78.5202 86.7304C78.9736 87.127 79.4311 87.5795 79.8601 88.0062C80.4564 88.6053 81.061 89.2604 81.6329 89.8854C82.4335 90.7387 83.177 91.5964 83.949 92.48C85.7925 94.4796 87.5272 96.5877 89.1449 98.7942C90.0395 100.027 90.881 101.32 91.7225 102.613C92.6456 103.988 93.4912 105.457 94.3082 106.897C95.1537 108.423 95.8931 110.013 96.5998 111.629C97.282 113.22 97.8007 114.875 98.2337 116.56C98.6667 118.185 98.9077 119.849 99.0915 121.512C99.2999 123.029 99.2835 124.551 99.3285 126.072C99.298 127.429 99.1861 128.782 98.9935 130.124C98.7794 131.484 98.366 132.802 97.7681 134.028C97.1785 135.17 96.4508 136.227 95.6031 137.17C94.728 138.094 93.7063 138.848 92.5844 139.399C91.5399 139.942 90.4292 140.331 89.2838 140.554C88.048 140.739 86.7923 140.719 85.5625 140.494C84.3085 140.325 83.1606 139.92 82.0128 139.515C80.8541 139.03 79.734 138.448 78.6632 137.774C77.5603 137.076 76.5105 136.257 75.5424 135.408C74.5211 134.503 73.5775 133.507 72.687 132.507C71.718 131.394 70.8407 130.196 70.0646 128.925C69.2093 127.588 68.4384 126.193 67.7566 124.749C67.054 123.305 66.4862 121.831 65.8898 120.327C65.3298 118.9 64.8269 117.449 64.3825 115.978C63.9863 114.612 63.6146 113.22 63.2715 111.793C62.9569 110.517 62.6996 109.237 62.4136 107.927C62.1604 106.703 61.9071 105.539 61.6498 104.32C61.4614 103.322 61.2034 102.341 60.8777 101.384C60.8777 101.44 60.8777 101.501 60.9063 101.527C61.0248 101.643 61.1106 101.785 61.2249 101.902C62.4136 102.802 64.3131 102.246 64.6889 100.682C64.6971 101.031 64.6807 101.354 64.6889 101.708C64.7052 102.41 64.7543 103.083 64.7461 103.815C64.7216 104.983 64.6726 106.186 64.5909 107.362C64.5018 108.91 64.3956 110.456 64.2722 112C64.1475 113.66 63.98 115.315 63.7698 116.965C63.3341 120.38 62.5704 123.739 61.4905 126.99C60.9587 128.506 60.3506 129.991 59.6686 131.438C58.9555 132.852 58.1185 134.193 57.1687 135.442C56.1963 136.666 55.0787 137.752 53.8436 138.675C52.6421 139.608 51.3273 140.368 49.9344 140.933C48.5905 141.528 47.1853 141.834 45.776 142.084C44.4017 142.266 43.0106 142.259 41.6381 142.062C40.2737 141.899 39.0115 141.381 37.7983 140.743C36.6137 140.019 35.6701 139.024 34.8613 137.877C34.0239 136.64 33.595 135.192 33.305 133.705C33.0966 132.132 33.1661 130.546 33.26 128.99C33.4112 127.318 33.7257 125.697 34.1546 124.072C34.5794 122.391 35.1186 120.762 35.7109 119.137C36.2787 117.594 36.9364 116.082 37.5573 114.599C38.1578 113.146 38.8685 111.746 39.6079 110.375C40.3227 108.979 41.1152 107.608 41.9117 106.294C42.7124 105.039 43.5375 103.755 44.3912 102.501C45.2736 101.272 46.2417 100.07 47.2057 98.8717C48.1738 97.6692 49.1705 96.4969 50.1917 95.3548C50.3265 95.1436 50.4859 94.9626 50.6492 94.7815C52.7775 92.4024 55.9596 95.1781 53.8599 97.583L53.4024 98.0959C52.4149 99.2004 51.456 100.333 50.5267 101.492C49.6403 102.604 48.7539 103.716 47.9532 104.85C47.124 106.018 46.3806 107.212 45.633 108.405C44.8651 109.63 44.1216 110.884 43.4599 112.164C42.7705 113.439 42.1394 114.747 41.5686 116.086C40.9497 117.502 40.3694 118.936 39.8285 120.387C39.2855 121.841 38.807 123.321 38.3947 124.822C38.0381 126.202 37.7881 127.611 37.6472 129.033C37.5409 130.24 37.4633 131.473 37.6349 132.667C37.7983 133.572 37.9903 134.442 38.4805 135.218C38.9437 135.878 39.515 136.446 40.1675 136.895C40.8836 137.33 41.673 137.614 42.4918 137.731C43.4607 137.849 44.4394 137.849 45.4084 137.731C46.4296 137.61 47.4508 137.317 48.4393 136.938C49.4279 136.494 50.4123 135.998 51.2783 135.265C52.177 134.567 53.0471 133.839 53.7415 132.938C54.4931 131.921 55.1875 130.904 55.739 129.8C56.3395 128.464 56.8582 127.163 57.3525 125.827C57.8672 124.348 58.2716 122.87 58.6147 121.34C58.9619 119.805 59.2274 118.245 59.4317 116.685C59.6114 115.099 59.7912 113.513 59.9137 111.927C60.0117 110.431 60.1384 108.901 60.2364 107.406C60.2895 106.319 60.3712 105.207 60.3671 104.121C60.3467 103.419 60.3589 102.746 60.314 102.074C60.2977 101.548 60.2854 101.022 60.3263 100.492C60.6081 98.7252 61.7233 97.7856 63.537 98.1089C63.7861 98.1907 63.9863 98.389 64.211 98.5011C64.7136 99.0259 65.0757 99.6817 65.2608 100.402C65.5385 101.298 65.7836 102.229 65.9511 103.19C66.2044 104.354 66.429 105.548 66.7109 106.742C66.9968 107.992 67.2256 109.246 67.5074 110.496C67.8506 111.802 68.1937 113.168 68.5899 114.474C69.0148 115.806 69.4682 117.172 69.9747 118.534C70.5139 119.922 71.0776 121.279 71.6985 122.637C72.3439 123.909 72.9893 125.176 73.745 126.383C74.468 127.447 75.187 128.507 76.0203 129.447C76.8209 130.361 77.6215 131.214 78.5325 132.007C79.3576 132.714 80.2073 133.391 81.1386 133.977C81.9883 134.537 82.891 135.037 83.8142 135.39C84.6843 135.744 85.5543 136.041 86.4734 136.158C87.1965 136.252 87.9195 136.352 88.6956 136.265C89.3859 136.097 90.1008 135.903 90.7299 135.563C91.3344 135.248 91.9349 134.882 92.4169 134.339C92.9847 133.766 93.4667 133.106 93.8098 132.361C94.2306 131.529 94.5124 130.671 94.6799 129.757C94.8433 128.611 94.925 127.495 94.9209 126.357C94.9839 123.512 94.6732 120.672 93.9977 117.918C93.5974 116.435 93.1399 114.957 92.5476 113.569C91.9284 112.076 91.2301 110.621 90.4562 109.211C89.6847 107.826 88.8616 106.473 87.9889 105.156C87.2046 103.923 86.4244 102.742 85.5584 101.54C84.7824 100.484 83.9759 99.4532 83.1402 98.4493C82.3069 97.4494 81.4777 96.4495 80.5626 95.4841C79.8437 94.6565 79.1003 93.7988 78.3282 92.9713C77.7849 92.3765 77.2702 91.8033 76.6984 91.2387C76.2759 90.8053 75.8385 90.3884 75.3871 89.9888C75.1832 89.793 74.9921 89.5827 74.8153 89.3595C72.5686 87.4071 75.5873 84.0367 77.834 85.9891Z" fill="#100F0D"/>
<path d="M42.03 53.5173C41.1355 54.3923 38.9337 57.099 37.0874 59.5255C34.1912 63.3054 33.652 63.9045 33.2885 63.7709C32.0507 63.2795 25.1841 59.741 22.676 58.323C18.5013 55.9309 10.16 49.3323 7.92559 46.6472C3.47718 41.3631 -0.15426 33.3637 0.00504927 29.1399C0.13985 25.8557 1.78196 22.9938 4.27372 21.7181C7.97052 19.8174 14.2326 20.4768 20.029 23.3473C26.3891 26.5496 32.2427 32.6095 39.6813 43.7207C41.7359 46.7894 43.6436 49.6038 43.9867 50.0004C44.6484 50.8322 44.6239 50.9184 42.03 53.5173Z" fill="white"/>
<path d="M55.0975 42.1648C54.0069 42.9019 51.6131 44.6129 49.7055 45.962L46.3028 48.3799L45.7636 47.0481C43.8642 42.4191 40.9067 31.7907 40.1674 26.9505C38.2802 14.7058 40.8373 6.77966 47.8183 3.14201C56.5191 -1.40075 60.8572 7.02102 59.595 25.8601C59.3825 29.2348 58.4104 35.3852 57.6342 38.5444L57.0583 40.7555L55.0975 42.1648Z" fill="white"/>
<path d="M36.0419 65.0337C35.7314 64.8958 35.4496 64.732 35.1432 64.5941C34.6326 64.3139 34.073 64.0381 33.5338 63.7321C32.7781 63.3744 32.0428 62.9304 31.3116 62.5425C30.3231 61.9564 29.3345 61.3702 28.3746 60.7582C27.2472 60.0901 26.1197 59.4221 25.0168 58.6635C23.8853 57.9351 22.7538 57.1507 21.6509 56.3361C20.4295 55.4051 19.2654 54.4742 18.1298 53.513C16.8512 52.4657 15.6544 51.3322 14.4575 50.1986C13.2034 49.0048 12.0597 47.6945 10.9404 46.4101C9.87836 45.0654 8.89391 43.6302 7.99524 42.1648C7.14968 40.7554 6.443 39.2555 5.78942 37.691C5.2243 36.3011 4.73201 34.8796 4.31479 33.4327C3.97087 32.1292 3.69406 30.8069 3.48557 29.4718C3.34024 28.1054 3.37737 26.7242 3.59586 25.3687C3.78376 24.0757 4.22084 22.8603 4.80089 21.6707C5.35235 20.5156 6.12847 19.5243 7.01897 18.589C7.88495 17.74 8.86532 17.0676 9.87428 16.4814C10.9976 15.891 12.2108 15.5591 13.4567 15.3781C14.6699 15.1626 15.8627 15.154 17.1126 15.2057C18.3667 15.3134 19.5676 15.5419 20.7972 15.8565C22.0512 16.1409 23.2603 16.6021 24.4654 17.1193C25.6745 17.6408 26.8305 18.3391 27.9865 19.033C29.2283 19.757 30.3925 20.688 31.4995 21.6233C32.6923 22.6404 33.7789 23.7179 34.8368 24.8903C35.9234 26.0281 36.8997 27.2866 37.8801 28.5452C38.7991 29.7477 39.6651 30.9501 40.5066 32.2431C41.2868 33.4198 42.0425 34.6266 42.7696 35.8636C43.4109 37.0143 43.9992 38.1694 44.6405 39.3202C45.2532 40.3848 45.8088 41.4536 46.3643 42.5182C46.7442 43.2423 47.1527 43.9319 47.6143 44.6215C47.7134 44.787 47.8299 44.9403 47.9615 45.0784C47.9329 45.0482 47.9043 44.962 47.8471 44.9663C47.7327 44.8499 47.5938 44.768 47.4509 44.6818C46.0784 44.1689 44.4444 45.3326 44.5139 46.9403C44.4043 46.6143 44.3035 46.2852 44.2116 45.9533C43.9992 45.2852 43.7582 44.6474 43.5457 43.9836C43.2639 42.8501 43.0106 41.6864 42.7002 40.5227L41.7443 35.9842C41.3971 34.3809 41.1316 32.7517 40.8334 31.0924C40.5679 29.3985 40.3841 27.7349 40.2534 26.0109C40.1512 24.2567 40.1594 22.5586 40.2207 20.8001C40.3187 19.1838 40.4658 17.5719 40.7027 15.9815C40.9641 14.4213 41.4502 12.9127 41.9935 11.4042C42.5613 9.9216 43.3864 8.57687 44.2688 7.29249C45.147 6.0038 46.2009 4.89182 47.3651 3.88758C48.5048 2.91783 49.7343 2.14634 51.021 1.49122C52.2792 0.870575 53.6313 0.504227 54.9547 0.232697C56.3354 -0.0431442 57.6998 0.0602951 59.011 0.284416C60.3508 0.650772 61.5354 1.31882 62.6424 2.13341C63.8025 3.06868 64.5868 4.30135 65.2608 5.659C65.9389 7.07268 66.3147 8.5855 66.6333 10.1543C66.9561 11.7878 67.1113 13.4213 67.1848 15.0893C67.2338 16.8435 67.1399 18.5761 67.05 20.3044C66.9275 21.9508 66.7518 23.593 66.5435 25.2135C66.3637 26.7996 66.0737 28.3297 65.7837 29.92C65.4727 31.4681 65.1075 33.0035 64.689 34.5231C64.2992 35.9853 63.866 37.4342 63.39 38.8676C62.908 40.3761 62.3075 41.8286 61.7356 43.2552C61.1417 44.6953 60.5138 46.1194 59.8525 47.5264C59.7505 47.7517 59.6551 47.9802 59.5665 48.2117C58.1736 51.1512 54.3543 49.509 55.7186 46.5394C55.7962 46.3326 55.9269 46.1257 56.0046 45.9145C56.6336 44.5482 57.2341 43.1561 57.8101 41.7898C58.3574 40.458 58.9007 39.1219 59.3378 37.7341C59.7708 36.4023 60.1793 35.0403 60.5592 33.6525C60.935 32.2087 61.2822 30.7907 61.5804 29.377C61.8704 27.903 62.1359 26.4591 62.2952 25.0196C62.4709 23.4895 62.6792 21.9336 62.7772 20.3777C62.8753 18.8218 62.9406 17.24 62.8712 15.6884C62.8058 14.2532 62.7364 12.8222 62.4505 11.456C62.1931 10.2319 61.9113 9.04236 61.4129 7.97347C61.0697 7.15417 60.5673 6.42001 59.9383 5.81847C59.2847 5.34437 58.6352 4.92199 57.855 4.7108C57.041 4.5263 56.2016 4.50292 55.3796 4.64184C54.4237 4.81473 53.4911 5.10849 52.6019 5.51677C51.6603 5.99902 50.7643 6.57486 49.9263 7.23647C49.0773 7.95685 48.317 8.78651 47.6633 9.7061C46.9682 10.6317 46.3977 11.6542 45.9681 12.7447C45.5081 13.9048 45.1698 15.1144 44.9591 16.3521C44.7134 17.7683 44.5673 19.2017 44.522 20.6406C44.4281 22.2008 44.4322 23.7659 44.5343 25.3256C44.6609 26.8729 44.8161 28.4503 45.0531 29.9976C45.3186 31.5665 45.5841 33.1439 45.9313 34.6826C46.2499 36.1954 46.5644 37.6522 46.9117 39.1349C47.1322 40.2124 47.3855 41.2597 47.6633 42.3329C47.8471 42.9708 48.0881 43.6086 48.2719 44.2465C48.4517 44.7723 48.6069 45.2637 48.7294 45.7852C48.9459 47.5394 48.1453 48.7936 46.3194 49.022C46.0702 49.0608 45.8169 48.9229 45.5392 48.8712C44.9313 48.5231 44.4202 48.0135 44.0564 47.3928C43.5091 46.6154 43.0137 45.7988 42.5736 44.9491C42.018 43.8845 41.4584 42.8156 40.8783 41.7769C40.2615 40.6563 39.6774 39.5615 39.0647 38.4366C37.6655 36.0337 36.1281 33.7235 34.461 31.5191C33.5419 30.3726 32.6514 29.2003 31.6506 28.1486C30.7165 27.104 29.7264 26.1169 28.685 25.192C27.7169 24.4032 26.7243 23.5843 25.6255 22.9421C24.6184 22.3345 23.5837 21.7793 22.5251 21.2785C21.5447 20.869 20.5317 20.4897 19.4982 20.201C18.5271 19.9498 17.5379 19.7841 16.5408 19.7053C15.616 19.6318 14.6865 19.6592 13.7671 19.7872C13.0523 19.9294 12.3334 20.0674 11.6471 20.4079C10.9929 20.7449 10.3876 21.1788 9.84977 21.6965C9.35637 22.1775 8.93248 22.7322 8.59164 23.343C8.22895 24.0885 7.97029 24.8855 7.82368 25.7092C7.65532 26.6178 7.62499 27.5489 7.73382 28.4676C7.90129 29.6011 8.09737 30.7088 8.46092 31.8121C8.80405 33.1181 9.22479 34.3938 9.73131 35.6394C10.3236 36.9669 10.9159 38.2987 11.6716 39.5615C12.4559 40.8589 13.3219 42.1174 14.2696 43.2897C15.2656 44.5201 16.3353 45.6818 17.4721 46.7679C18.6159 47.8454 19.7555 48.9229 20.9728 49.9099C22.0553 50.815 23.1623 51.7503 24.2938 52.5907C25.3436 53.3493 26.3894 54.1121 27.4923 54.8104C28.538 55.5086 29.6409 56.2068 30.7397 56.849C31.6997 57.405 32.631 57.9911 33.591 58.5471C34.265 58.9393 34.9716 59.2971 35.6456 59.685C36.2093 59.9608 36.7159 60.241 37.251 60.4866L37.9822 60.8745C40.6823 62.0813 38.742 66.2405 36.0419 65.0337Z" fill="#100F0D"/>
<path d="M55.6452 46.923C69.9748 42.0657 83.3732 42.7682 91.502 48.8194C94.1082 50.7331 94.3696 51.1038 96.2609 55.3232C98.0623 59.3402 98.2216 60.1246 98.1399 63.1157C98.0868 65.2233 97.4128 68.1455 96.2486 71.2574C94.7781 75.2527 93.7936 76.8949 90.5502 81.0066C84.0839 89.1956 77.4991 94.1995 66.9153 98.9147C59.154 102.401 52.4835 104.013 45.3227 104.113C37.055 104.246 31.1524 102.583 26.079 98.6647C23.9794 97.0312 23.5423 96.3718 21.8593 92.5833C20.1151 88.7431 19.9599 88.0147 20.062 84.7606C20.2131 81.0368 22.0227 75.1536 24.253 71.4556C27.1982 66.4732 32.4799 60.6892 37.9741 56.4826C41.8343 53.5518 51.3806 48.3712 55.6452 46.923Z" fill="#F2EF1D"/>
<path d="M22.1291 93.3075C23.0686 90.1439 24.6413 86.6399 26.3202 84.1013C29.7596 78.869 35.7521 72.7703 41.957 68.1888C46.2584 65.0123 56.8994 59.2713 61.6256 57.6034C75.0443 52.8624 87.5726 52.19 96.355 55.6423C96.3224 55.5518 96.2938 55.4656 96.2366 55.3492C94.3412 51.134 94.0839 50.8194 91.5063 48.8756C83.3448 42.7985 69.9464 42.0916 55.6209 46.9533C51.3563 48.3972 41.81 53.5821 37.9743 56.5388C32.4842 60.7454 27.1739 66.5035 24.2287 71.4816C22.0229 75.2098 20.1847 81.0671 20.0377 84.7909C19.9601 88.0708 20.0908 88.7734 21.8064 92.6438C21.9535 92.9024 22.0393 93.1049 22.1291 93.3075Z" fill="#E2D50C"/>
<path d="M77.3114 96.4623C99.8516 85.2606 112.678 63.9907 105.967 48.9358C99.2552 33.8809 75.5222 30.795 52.982 41.9967C30.4458 53.2544 17.6194 74.5286 24.3267 89.5232C31.0381 104.578 54.7711 107.664 77.3114 96.4623ZM74.0067 95.3891C54.0686 105.311 33.0642 102.552 27.1248 89.2344C21.1528 75.9423 32.5209 57.086 52.4877 47.1946C72.4504 37.2427 93.4547 40.0011 99.3982 53.3234C105.309 66.6155 93.9694 85.4416 74.0067 95.3891Z" fill="#100F0D"/>
<path d="M88.8795 56.4527C89.1593 56.6497 89.4741 56.7848 89.8047 56.85C90.1354 56.9152 90.4751 56.909 90.8035 56.832C91.6327 56.6337 92.1188 56.0906 92.4864 55.3752C92.5395 55.1985 92.6172 55.0519 92.3312 55.7329C90.3705 59.1895 85.7669 56.3148 87.6704 52.8581C87.3314 53.5995 87.4907 53.3021 87.5397 53.1254C87.989 52.2634 88.5813 51.5996 89.5167 51.3367C90.4032 51.1945 91.2651 51.2548 92.0003 51.8194C95.0885 54.1554 91.9963 58.7585 88.8795 56.4527Z" fill="#100F0D"/>
<path d="M91.6651 67.0852C92.2329 67.5377 92.9273 67.6024 93.6177 67.4946C94.3897 67.2964 94.9003 66.7232 95.272 66.0077C95.2172 66.1403 95.1558 66.2698 95.0882 66.3956C93.1847 69.8522 88.5524 67.0033 90.4601 63.551C90.1455 64.2621 90.3048 63.9647 90.3253 63.8182C90.512 63.3779 90.7887 62.9866 91.1354 62.6722C91.4821 62.3578 91.8903 62.128 92.3309 61.9994C93.1888 61.827 94.0507 61.9477 94.7859 62.508C97.8741 64.788 94.7533 69.4212 91.6651 67.0852Z" fill="#100F0D"/>
<path d="M23.7957 89.2731C23.1544 89.1481 22.5417 89.1653 21.9045 89.1567C19.8621 89.1968 17.8264 89.4145 15.818 89.8075C12.8536 90.4467 9.91892 91.2305 7.02332 92.1565C6.55765 92.316 6.06338 92.5056 5.56503 92.6392C4.38451 92.9969 3.91883 91.2255 5.10344 90.8678L6.59033 90.4713C9.48241 89.592 12.3418 88.6869 15.1685 87.5146C17.0639 86.6655 18.9266 85.7906 20.6708 84.6226C21.161 84.2562 21.7043 83.8899 22.1659 83.4373C26.0751 82.2607 27.6764 88.0706 23.7957 89.2731Z" fill="#100F0D"/>
<path d="M82.5238 90.7902C71.2414 76.2223 68.8395 58.3918 66.9605 40.376L57.8676 43.7033C56.589 64.525 63.1493 81.3469 73.5943 96.1691L82.5238 90.7902Z" fill="#100F0D"/>
<path d="M82.5238 90.7902C71.2414 76.2223 68.8395 58.3918 66.9605 40.376L57.8676 43.7033C56.589 64.525 63.1493 81.3469 73.5943 96.1691L82.5238 90.7902Z" stroke="#100F0D" stroke-width="0.846665" stroke-miterlimit="282"/>
<path d="M63.7578 99.4188C51.9444 85.782 47.3857 67.2231 47.6267 50.0692L39.4774 53.0173C38.6196 72.4209 44.8245 88.2473 54.4566 102.289L63.7578 99.4188Z" fill="#100F0D"/>
<path d="M63.7578 99.4188C51.9444 85.782 47.3857 67.2231 47.6267 50.0692L39.4774 53.0173C38.6196 72.4209 44.8245 88.2473 54.4566 102.289L63.7578 99.4188Z" stroke="#100F0D" stroke-width="0.846665" stroke-miterlimit="282"/>
<path d="M45.2368 101.302C37.4225 91.6696 33.0884 72.6495 32.8515 60.9349L27.774 66.6026C27.7046 79.8343 31.9569 90.8205 38.4151 100.66L45.2368 101.302Z" fill="#100F0D"/>
<path d="M45.2368 101.302C37.4225 91.6696 33.0884 72.6495 32.8515 60.9349L27.774 66.6026C27.7046 79.8343 31.9569 90.8205 38.4151 100.66L45.2368 101.302Z" stroke="#100F0D" stroke-width="0.846665" stroke-miterlimit="282"/>
<path d="M106.853 60.0082C107.233 60.014 107.606 60.1129 107.944 60.297C108.221 60.4048 108.503 60.5125 108.756 60.6547C109.038 60.8185 109.349 61.0168 109.606 61.215C109.941 61.3788 110.256 61.6331 110.566 61.8271L111.473 62.5641C112.141 63.0982 112.762 63.6955 113.327 64.3484C113.671 64.6932 113.961 65.0941 114.246 65.4949C114.537 65.8957 114.798 66.3267 115.059 66.7577C115.321 67.2491 115.558 67.7663 115.766 68.2576C116.003 68.7791 116.183 69.361 116.338 69.9126C116.428 70.1712 116.465 70.4342 116.554 70.6971C117.273 73.7486 113.197 74.8088 112.449 71.7875C112.41 71.5802 112.358 71.3757 112.294 71.1755C112.103 70.4455 111.822 69.7455 111.457 69.0937C111.281 68.7489 111.109 68.4602 110.905 68.2016C110.723 67.9112 110.512 67.6424 110.276 67.3999C110.072 67.1456 109.843 66.9172 109.59 66.6586C109.39 66.4603 109.132 66.2664 108.903 66.0379L108.168 65.4733C107.939 65.3052 107.686 65.1673 107.462 64.9992C107.237 64.8872 107.037 64.7449 106.783 64.607L106.387 64.3872C106.502 64.3829 106.612 64.4389 106.751 64.4605C103.777 64.3484 103.851 59.922 106.853 60.0082Z" fill="#100F0D"/>
<path d="M105.011 52.5348C105.39 52.5057 105.758 52.3847 106.085 52.1813C106.359 52.0563 106.604 51.9012 106.878 51.7159C107.147 51.5348 107.392 51.3193 107.666 51.1383C107.993 50.8926 108.291 50.6771 108.589 50.4056L109.455 49.6169C109.753 49.3453 110.023 49.0436 110.317 48.7118C110.615 48.3799 110.885 48.0222 111.179 47.6903C111.473 47.3024 111.739 46.8843 112.008 46.4663C112.245 46.018 112.482 45.5698 112.69 45.0957C112.956 44.6216 113.136 44.1173 113.287 43.5872C113.495 43.0527 113.618 42.4924 113.769 41.902C113.789 41.6347 113.838 41.3417 113.887 41.1089C114.386 38.0143 110.256 37.2644 109.757 40.3547C109.68 40.5615 109.659 40.7684 109.635 40.971C109.562 41.3537 109.461 41.7298 109.333 42.0959C109.228 42.4505 109.098 42.7963 108.944 43.1303C108.783 43.4414 108.616 43.7489 108.442 44.0527C108.287 44.3544 108.099 44.6216 107.911 44.8888C107.67 45.1603 107.482 45.4319 107.266 45.6732C107.049 45.9146 106.833 46.0956 106.62 46.337L105.885 46.9748L105.26 47.492C105.043 47.6731 104.827 47.7981 104.635 47.9489C104.5 48.0394 104.365 48.1342 104.198 48.1946C104.337 48.1644 104.476 48.1299 104.586 48.1256C101.624 48.4187 102.021 52.8623 105.011 52.5348Z" fill="#100F0D"/>
</svg>
